<?xml version="1.0" encoding="utf-8"?>

<!-- License Agreement at http://iconmonstr.com/license/ -->

<!DOCTYPE svg PUBLIC "-//W3C//DTD SVG 1.1//EN" "http://www.w3.org/Graphics/SVG/1.1/DTD/svg11.dtd">
<svg version="1.1" xmlns="http://www.w3.org/2000/svg" xmlns:xlink="http://www.w3.org/1999/xlink" x="0px" y="0px"
	 width="512px" height="512px" viewBox="0 0 512 512" enable-background="new 0 0 512 512" xml:space="preserve">
<path id="pin-7-icon" d="M276.342,282.295v139.353L235.656,462V282.295c6.665,1.066,13.462,1.619,20.344,1.619
	C262.88,283.914,269.677,283.361,276.342,282.295z M256,258.901c-57.595,0-104.451-46.856-104.451-104.45
	C151.549,96.856,198.405,50,256,50s104.451,46.856,104.451,104.451C360.451,212.045,313.595,258.901,256,258.901z M256,80.015
	c-41.044,0-74.437,33.392-74.437,74.437c0,41.044,33.393,74.436,74.437,74.436s74.437-33.392,74.437-74.436
	C330.437,113.406,297.044,80.015,256,80.015z M300.013,134.675c5.353,38.402-33.586,69.179-66.235,60.749
	C273.92,227.003,329.272,183.023,300.013,134.675z"/>
</svg>
