<?xml version="1.0"?>
<svg width="580" height="400" xmlns="http://www.w3.org/2000/svg">
 <!-- Created with Method Draw - http://github.com/duopixel/Method-Draw/ -->
 <g>
  <title>background</title>
  <rect fill="#fff" id="canvas_background" height="402" width="582" y="-1" x="-1"/>
  <g display="none" overflow="visible" y="0" x="0" height="100%" width="100%" id="canvasGrid">
   <rect fill="url(#gridpattern)" stroke-width="0" y="0" x="0" height="100%" width="100%"/>
  </g>
 </g>
 <g>
  <title>Layer 1</title>
  <path d="m162.5,124.5c0,0 12,-23 12,-23c0,0 24,-23 24,-23c0,0 20,-3 20,-3c0,0 19,1 19,1c0,0 7,4 10,5c3,1 8,8 9,8c1,0 9,10 9,10c0,0 5,8 5,8c0,0 1,13 1,13c0,0 -5,11 -5,11c0,0 -5,11 -5,11c0,0 -3,12 -3,12c0,0 -10,6 -10,6c0,0 -15,12 -16,13c-1,1 -8,15 -8,16c0,1 0,14 0,15c0,1 0,18 0,18c0,0 1,13 1,13" id="svg_1" stroke-width="1.5" stroke="#000" fill="#fff"/>
 </g>
</svg>